# xmcd
# 
# Track frame offsets:
#     150
#     10743
#     21846
#     34330
#     42623
#     55616
#     65919
#     78935
#     91160
#     102851
#     114756
#     124918
#     143953
#     154932
#     166331
#     179981
#     192041
#     203708
# 
# Disc length: 2885
# 
# Revision: 0
# Processed by: cddbd v1.5.2PL0 Copyright (c) Steve Scherf et al.
# Submitted via: fre:ac v1.0.31
# 
DISCID=f50b4312
DTITLE=Johnny Cash - Starportrait
DYEAR=0
DGENRE=Country
TTITLE0=Big River
TTITLE1=Cry, Cry, Cry
TTITLE2=Understand your Man
TTITLE3=Five Feet High in Rising
TTITLE4=Folsom Prison Blues
TTITLE5=Get Rythm
TTITLE6=Man in Black
TTITLE7=Home of the Blues
TTITLE8=I Walk The Line
TTITLE9=Ring Of Fire
TTITLE10=Hey Porter
TTITLE11=Sunday Morning Comming Down
TTITLE12=Train Of Love
TTITLE13=There You Go
TTITLE14=I I Were The Carpenter
TTITLE15=Wath Is Truth
TTITLE16=Cottonfields
TTITLE17=Next In Line
EXTD=
EXTT0=
EXTT1=
EXTT2=
EXTT3=
EXTT4=
EXTT5=
EXTT6=
EXTT7=
EXTT8=
EXTT9=
EXTT10=
EXTT11=
EXTT12=
EXTT13=
EXTT14=
EXTT15=
EXTT16=
EXTT17=
PLAYORDER=
